<?xml version="1.0" standalone="no"?>
<!DOCTYPE svg PUBLIC "-//W3C//DTD SVG 20010904//EN"
 "http://www.w3.org/TR/2001/REC-SVG-20010904/DTD/svg10.dtd">
<svg version="1.0" xmlns="http://www.w3.org/2000/svg"
 width="960.000000pt" height="960.000000pt" viewBox="0 0 960.000000 960.000000"
 preserveAspectRatio="xMidYMid meet">

<g transform="translate(0.000000,960.000000) scale(0.100000,-0.100000)"
fill="#000000" stroke="none">
<path d="M0 9484 l0 -117 68 7 c103 11 105 13 146 169 l15 57 -115 0 -114 0 0
-116z"/>
<path d="M9376 9538 c12 -122 53 -167 158 -175 l66 -6 0 122 0 121 -115 0
-116 0 7 -62z"/>
<path d="M4660 9239 c-36 -5 -83 -11 -106 -13 -23 -2 -50 -9 -62 -15 -11 -6
-32 -11 -45 -11 -13 0 -34 -9 -47 -20 -13 -12 -30 -18 -38 -15 -8 3 -26 -1
-40 -9 -26 -14 -78 -22 -282 -46 -52 -6 -126 -16 -164 -21 -71 -10 -161 -43
-174 -63 -4 -7 -25 -25 -47 -42 -22 -16 -51 -39 -65 -51 -14 -13 -29 -23 -33
-23 -5 0 -23 -6 -40 -14 -18 -8 -60 -19 -95 -26 -91 -16 -168 -54 -205 -98
-10 -12 -33 -30 -50 -39 -18 -9 -34 -19 -37 -22 -3 -3 -29 -17 -57 -31 -29
-14 -53 -28 -53 -32 0 -5 -6 -8 -12 -8 -7 0 -40 -28 -73 -63 -33 -35 -90 -84
-126 -108 -49 -32 -95 -78 -173 -172 -58 -70 -137 -155 -176 -189 -73 -64
-128 -135 -137 -179 -3 -14 -32 -55 -65 -89 -61 -65 -95 -126 -118 -215 -20
-77 -45 -120 -93 -159 -61 -50 -96 -120 -103 -209 -11 -141 -33 -228 -75 -294
-21 -34 -39 -67 -39 -73 0 -5 -4 -10 -9 -10 -15 0 -51 -86 -67 -163 -14 -62
-16 -186 -17 -882 -1 -602 2 -831 11 -890 10 -63 10 -131 1 -325 -17 -330 -7
-435 52 -552 22 -46 44 -87 48 -93 20 -25 49 -148 71 -295 25 -165 50 -229
120 -308 31 -35 54 -72 61 -97 5 -22 14 -49 19 -60 5 -11 12 -36 15 -55 8 -40
55 -120 71 -120 23 0 144 -167 144 -199 0 -6 4 -11 8 -11 10 0 36 -59 56 -129
18 -63 20 -138 5 -196 -6 -22 -13 -51 -15 -65 -3 -14 -9 -34 -14 -45 -14 -34
-30 -164 -40 -329 -5 -88 -13 -199 -16 -246 -8 -109 7 -182 43 -205 33 -22 53
-16 145 45 42 27 81 50 86 50 6 0 12 5 14 11 2 6 48 22 101 35 109 28 160 58
203 119 70 100 153 132 317 120 101 -7 225 -42 259 -72 10 -9 18 -13 18 -8 0
4 19 -13 43 -37 80 -85 90 -89 292 -112 62 -8 127 -21 145 -29 18 -9 48 -19
69 -23 20 -4 56 -17 81 -29 59 -30 95 -42 155 -54 28 -5 64 -14 80 -19 101
-35 121 -37 456 -37 233 0 343 4 360 12 13 6 60 18 103 27 44 9 100 26 125 38
25 11 51 21 56 22 6 1 19 6 30 12 44 24 226 76 348 98 84 16 137 38 137 57 0
5 6 9 13 9 13 1 67 45 67 56 0 3 17 23 38 43 41 40 98 71 131 71 25 0 71 45
71 70 0 10 16 24 43 35 23 10 61 27 84 37 23 10 57 22 77 25 20 3 36 9 36 13
0 4 26 13 58 20 65 14 133 51 155 83 28 40 84 97 95 97 7 0 12 5 12 10 0 6 6
10 13 10 8 0 24 8 35 17 12 10 33 26 47 36 14 10 35 37 46 60 25 48 84 109
147 151 48 33 73 69 97 140 9 27 21 54 26 60 5 6 28 40 51 75 36 57 40 69 35
109 -5 44 -12 53 -156 194 -84 81 -157 148 -162 148 -15 0 -129 71 -129 80 0
7 -33 44 -106 120 -58 60 -70 70 -89 70 -8 0 -15 5 -15 10 0 6 -5 10 -11 10
-7 0 -17 7 -23 15 -10 13 -24 14 -112 3 -81 -9 -115 -9 -170 2 -121 22 -164
24 -164 6 0 -13 -16 -15 -122 -10 -66 2 -125 7 -130 10 -5 3 -23 -10 -41 -28
-18 -19 -53 -49 -79 -68 -26 -19 -48 -39 -48 -44 0 -4 -16 -30 -36 -57 -27
-37 -45 -51 -77 -61 -23 -6 -47 -15 -52 -19 -6 -4 -35 -17 -65 -29 -30 -12
-98 -46 -151 -76 -53 -30 -106 -57 -119 -59 -12 -2 -29 -10 -38 -17 -20 -17
-706 -19 -743 -2 -13 6 -40 16 -59 23 -115 39 -156 55 -160 61 -3 3 -21 12
-40 20 -34 14 -53 28 -136 102 -22 21 -44 38 -48 38 -7 0 -92 70 -143 117 -13
13 -26 23 -29 23 -3 0 -24 16 -47 35 -22 19 -51 35 -65 35 -15 0 -26 7 -29 20
-7 25 -18 25 -35 2 -15 -22 -51 -33 -134 -39 -67 -5 -124 15 -124 42 0 10 -10
15 -30 15 -16 0 -30 -4 -30 -9 0 -5 -21 -18 -47 -28 -54 -20 -216 -25 -255 -6
-13 6 -34 16 -48 22 -64 29 -161 105 -186 146 -47 78 -54 105 -54 206 0 113
17 188 56 250 32 51 122 149 137 149 6 0 18 7 28 15 9 9 58 24 109 34 50 11
96 23 101 28 6 6 -1 19 -16 33 -14 13 -25 29 -25 37 0 7 -24 37 -54 66 -67 65
-80 87 -96 162 -7 33 -19 67 -27 76 -7 8 -13 21 -13 28 0 18 -31 63 -63 91
-16 14 -43 45 -61 70 -36 52 -41 84 -56 340 -5 96 -15 207 -21 245 -13 83 -7
443 9 590 7 55 19 171 27 259 13 138 19 164 43 207 15 27 30 49 35 49 4 0 7 4
7 10 0 5 16 27 36 47 35 37 60 87 90 185 11 37 33 66 94 127 44 44 80 84 80
90 0 16 88 151 99 151 16 0 109 95 125 128 36 72 86 118 145 136 64 19 118 53
171 107 59 61 92 76 201 95 98 17 151 38 241 97 31 20 62 37 68 37 5 0 10 3
10 8 0 11 61 40 100 46 161 28 509 44 670 32 142 -11 332 -52 350 -75 11 -14
107 -80 147 -100 23 -12 104 -33 180 -48 l138 -27 62 -61 c56 -54 90 -77 173
-115 62 -28 84 -45 130 -103 56 -71 114 -128 183 -176 26 -19 47 -38 47 -42 0
-12 72 -59 90 -59 14 0 41 20 104 76 16 15 50 35 75 46 108 46 133 63 171 118
58 83 92 116 146 140 81 36 123 70 155 127 17 29 53 75 80 102 54 53 62 86 29
116 -11 10 -20 24 -20 31 0 27 -95 158 -182 252 -57 61 -123 119 -179 157 -49
33 -89 64 -89 68 0 5 -24 32 -52 61 -43 41 -66 55 -118 70 -36 11 -72 25 -80
31 -8 6 -27 17 -42 25 -16 7 -28 17 -28 22 0 16 -80 86 -112 98 -18 6 -48 18
-66 26 -18 8 -41 14 -51 14 -30 0 -115 32 -137 51 -11 11 -24 19 -30 19 -5 0
-28 18 -52 40 -24 22 -49 40 -57 40 -8 0 -16 4 -19 9 -11 16 -123 41 -286 61
-91 12 -192 28 -225 36 -33 8 -76 19 -95 23 -19 4 -44 12 -55 18 -22 12 -100
26 -255 47 -116 16 -359 19 -460 5z m-1963 -4464 c13 -3 30 -20 39 -38 18 -34
30 -150 21 -189 -11 -41 -44 -48 -237 -48 -98 0 -181 -3 -183 -7 -3 -5 -7 -33
-8 -63 l-4 -55 160 0 c143 -1 163 -3 187 -20 26 -19 27 -24 28 -106 0 -130 3
-128 -200 -131 l-165 -3 0 -65 0 -65 208 2 c221 3 232 1 273 -46 20 -22 23
-37 24 -98 0 -68 -1 -72 -36 -107 l-36 -36 -353 0 -353 0 -36 45 c-21 25 -43
45 -51 45 -23 0 -25 26 -15 207 5 98 10 292 11 432 1 140 5 266 8 280 5 18 15
27 33 29 15 2 33 13 41 25 14 22 15 22 318 19 167 -1 314 -5 326 -7z m773
-1089 c0 -2 -7 -9 -15 -16 -12 -10 -15 -10 -15 4 0 9 7 16 15 16 8 0 15 -2 15
-4z m-95 -46 c18 -7 19 -8 2 -15 -22 -9 -70 3 -62 15 7 12 32 12 60 0z m354
-234 c17 -20 3 -44 -27 -48 -27 -3 -78 35 -68 51 8 13 84 10 95 -3z m301 -192
c22 -9 40 -23 40 -31 0 -8 4 -12 9 -9 11 7 19 -13 14 -35 -5 -20 -58 -30 -108
-22 -33 5 -35 8 -35 44 0 28 4 39 15 39 8 0 15 7 15 15 0 19 1 19 50 -1z m580
-171 c14 -2 75 -2 136 -2 81 0 122 -4 150 -16 55 -23 83 -52 77 -78 -7 -27
-42 -67 -59 -67 -7 0 -20 -7 -28 -16 -14 -14 -34 -14 -179 -5 -266 18 -271 19
-306 51 -17 16 -41 36 -53 44 -21 15 -21 16 -3 36 11 13 25 18 37 14 13 -4 18
0 18 15 0 19 6 21 74 21 41 0 78 5 81 10 4 6 12 7 18 3 7 -4 23 -9 37 -10z
m1006 -165 c25 -13 46 -33 54 -52 7 -17 23 -44 34 -61 72 -99 86 -133 86 -206
0 -60 -5 -81 -33 -137 -21 -42 -38 -97 -46 -146 -18 -113 -27 -132 -79 -167
-41 -28 -52 -30 -123 -30 -63 0 -88 5 -126 25 -27 13 -55 33 -64 43 -38 46
-50 184 -23 262 8 25 19 101 24 170 9 131 17 168 44 190 9 7 16 19 16 25 1 12
52 64 88 88 34 23 100 21 148 -4z m-1524 -287 c25 -10 88 -63 88 -75 0 -4 9
-19 19 -34 30 -41 53 -174 45 -254 -7 -70 -44 -148 -71 -148 -7 0 -13 -4 -13
-10 0 -13 -199 -13 -276 0 -107 19 -145 52 -158 138 -10 64 11 171 40 210 14
18 58 53 97 79 40 26 82 55 94 66 19 17 46 26 105 36 4 0 17 -3 30 -8z m805
-187 c56 -16 99 -53 111 -93 12 -43 8 -251 -4 -259 -7 -4 -22 -26 -34 -49 -31
-60 -84 -82 -198 -84 -142 -2 -188 29 -228 150 -22 69 -17 245 9 284 22 35 60
58 105 68 49 10 175 1 239 -17z"/>
<path d="M2083 4702 c-15 -16 -14 -6 -18 -232 -2 -96 -6 -281 -10 -411 l-7
-236 25 -29 25 -29 315 2 c195 1 323 6 335 12 27 14 37 99 15 124 -15 15 -40
17 -253 17 -170 0 -239 3 -248 12 -8 8 -12 48 -12 113 0 140 -5 137 191 136
179 -1 197 5 197 66 0 65 -7 68 -189 71 -203 3 -199 0 -199 122 0 129 -10 123
221 125 107 1 202 6 212 10 13 5 17 19 17 59 0 45 -3 54 -22 64 -36 18 -577
21 -595 4z"/>
<path d="M4835 7486 c-14 -10 -17 -18 -9 -25 12 -13 81 7 86 24 5 16 -55 17
-77 1z"/>
<path d="M4980 7415 c0 -22 4 -25 35 -25 41 0 42 3 13 30 -29 27 -48 25 -48
-5z"/>
<path d="M4769 7394 c-12 -14 -11 -16 5 -13 11 2 21 10 24 17 5 17 -13 15 -29
-4z"/>
<path d="M5076 7376 c6 -15 34 -30 42 -22 10 11 -9 36 -27 36 -14 0 -19 -5
-15 -14z"/>
<path d="M4695 7364 c-46 -24 -63 -64 -26 -64 24 0 85 56 76 70 -8 13 -15 13
-50 -6z"/>
<path d="M5206 7313 c-12 -12 -6 -33 9 -33 8 0 15 6 15 14 0 17 -14 28 -24 19z"/>
<path d="M4587 7283 c-18 -5 -72 -37 -112 -68 -11 -9 -31 -18 -45 -22 -14 -3
-34 -14 -45 -24 -11 -9 -33 -21 -50 -25 -16 -4 -43 -20 -59 -35 -15 -16 -36
-29 -46 -29 -10 0 -24 -7 -31 -16 -8 -9 -33 -25 -56 -35 -23 -10 -46 -27 -52
-38 -6 -10 -28 -25 -48 -31 -21 -7 -45 -18 -53 -25 -8 -7 -24 -15 -36 -19 -11
-3 -30 -15 -42 -26 -11 -11 -48 -34 -82 -52 -34 -18 -82 -45 -108 -60 -26 -15
-67 -37 -92 -49 -25 -12 -60 -35 -78 -50 -18 -16 -41 -29 -51 -29 -50 0 -54
-69 -5 -85 17 -5 46 -23 65 -39 19 -16 50 -36 69 -44 45 -18 298 -144 370
-183 62 -34 62 -33 60 -204 -1 -127 -4 -168 -18 -206 -9 -25 -10 -44 -3 -61
13 -34 90 -109 137 -133 22 -11 86 -46 144 -77 57 -32 112 -58 120 -58 9 0 31
-11 50 -25 19 -14 41 -25 49 -25 8 0 33 -9 55 -19 23 -11 73 -32 111 -47 39
-15 81 -35 95 -45 14 -9 47 -20 74 -23 30 -4 57 -14 68 -26 25 -27 59 -34 136
-27 45 5 72 13 86 26 12 11 48 29 81 42 33 12 67 27 75 34 8 7 29 20 45 29 17
9 48 28 70 41 22 13 54 31 70 39 17 8 57 36 90 61 33 25 71 50 84 55 13 6 43
29 66 53 l42 42 1 240 c1 132 1 245 2 251 0 17 80 66 97 60 12 -5 13 -20 8
-88 -4 -46 -7 -94 -7 -108 0 -52 15 -161 23 -166 18 -11 8 -58 -21 -94 -16
-21 -30 -49 -30 -63 0 -14 -5 -48 -12 -76 -14 -60 -8 -69 52 -87 55 -16 99 -4
143 40 44 43 45 59 12 122 -14 26 -25 56 -25 67 0 11 -8 29 -17 40 -15 16 -17
35 -15 114 3 75 0 98 -12 112 -13 15 -15 40 -12 157 2 76 5 143 5 147 1 5 14
6 30 2 21 -4 36 0 57 17 35 28 60 44 94 60 23 12 99 66 110 79 3 3 24 18 48
33 23 14 42 30 42 35 0 5 16 19 36 30 19 12 34 27 32 33 -6 16 -97 67 -120 68
-21 0 -24 -23 -5 -37 6 -6 24 -13 40 -17 17 -4 27 -13 27 -25 0 -14 -12 -21
-56 -29 -39 -8 -62 -19 -76 -37 -11 -14 -25 -25 -32 -25 -7 0 -21 -9 -31 -20
-10 -11 -24 -20 -31 -20 -7 0 -18 -9 -24 -20 -6 -11 -17 -20 -26 -20 -8 0 -35
-19 -59 -41 -25 -23 -48 -39 -52 -36 -7 8 -5 184 3 244 6 40 4 44 -42 87 -27
26 -53 46 -58 46 -5 0 -17 6 -25 14 -9 7 -50 24 -91 37 -41 12 -84 29 -95 36
-11 7 -34 13 -52 13 -17 0 -87 12 -155 26 -68 15 -155 30 -193 34 -83 9 -152
27 -160 40 -3 6 -28 10 -56 10 -40 0 -53 5 -71 25 -15 18 -32 25 -57 25 -45 0
-118 -27 -154 -57 -16 -13 -34 -23 -41 -23 -7 0 -25 -13 -41 -30 -22 -23 -38
-30 -66 -30 -21 0 -42 -7 -50 -16 -17 -20 -113 -84 -127 -84 -7 0 -34 -13 -60
-30 -27 -16 -53 -30 -57 -30 -4 0 -41 -16 -81 -35 -40 -19 -81 -35 -91 -35
-10 -1 -31 -11 -47 -24 -42 -35 -29 -59 57 -102 40 -20 90 -45 112 -57 22 -12
65 -33 95 -46 30 -13 105 -48 165 -77 61 -30 115 -54 120 -54 5 0 38 -15 74
-34 36 -18 77 -37 91 -41 14 -4 31 -12 39 -18 23 -19 144 -67 168 -67 23 0 96
40 108 60 3 5 14 10 23 10 22 0 177 73 200 93 10 9 39 26 64 37 26 11 50 25
53 30 3 6 14 10 23 10 9 0 30 7 46 15 15 8 43 15 62 15 18 0 35 4 39 10 3 5
36 24 73 42 37 18 73 40 80 50 7 10 19 18 27 18 21 0 45 41 45 77 0 17 5 35
11 39 8 4 9 -11 5 -52 -3 -33 -9 -99 -12 -148 -6 -89 -7 -90 -48 -133 -22 -23
-46 -43 -53 -43 -7 0 -16 -6 -20 -14 -7 -12 -49 -44 -123 -93 -14 -10 -41 -31
-62 -48 -80 -67 -111 -85 -133 -79 -25 6 -55 -18 -55 -45 0 -10 -13 -22 -35
-30 -19 -7 -35 -16 -35 -21 0 -11 -84 -70 -100 -70 -6 0 -23 -11 -38 -25 -15
-14 -32 -25 -39 -25 -7 0 -26 -13 -43 -30 -17 -16 -38 -30 -47 -30 -20 0 -82
37 -111 67 -13 12 -32 23 -43 23 -25 0 -61 18 -72 37 -5 8 -28 23 -50 34 -23
11 -58 29 -78 42 -20 12 -60 36 -89 52 -29 17 -66 43 -83 58 -23 22 -36 28
-57 23 -28 -5 -71 13 -180 76 -25 14 -61 29 -81 32 -21 4 -43 13 -50 22 -7 9
-29 24 -48 35 -45 24 -68 38 -106 65 -16 12 -40 24 -51 28 -12 3 -29 15 -39
26 -10 11 -25 20 -33 20 -7 0 -26 6 -40 14 -15 8 -49 22 -77 31 -48 17 -113
46 -145 64 -8 5 -28 13 -45 18 -24 7 -31 15 -33 41 l-3 32 50 0 c39 0 53 4 60
19 6 10 23 24 38 30 16 6 46 22 68 36 22 13 47 27 55 31 8 4 29 17 45 30 17
12 40 25 53 29 12 3 33 17 45 30 12 12 38 28 59 34 20 7 39 18 41 25 3 8 35
28 70 45 36 18 71 38 77 46 7 8 18 15 24 15 6 0 22 16 36 35 21 28 31 34 62
35 22 0 44 7 55 18 10 10 30 23 46 30 15 6 27 16 27 21 0 5 13 12 29 16 16 3
37 15 47 26 9 10 25 19 35 19 25 0 74 44 65 58 -7 12 -9 13 -39 5z m328 -303
c10 -17 75 -40 112 -40 19 0 44 -6 56 -12 38 -21 129 -39 209 -41 46 -1 82 -7
90 -15 6 -6 24 -12 39 -12 14 0 46 -7 69 -15 23 -8 57 -15 76 -15 45 0 80 -17
93 -46 7 -16 19 -24 36 -24 32 0 115 -37 115 -50 0 -6 -11 -20 -25 -32 -14
-12 -25 -28 -25 -35 0 -17 -102 -63 -164 -74 -27 -4 -56 -15 -65 -23 -10 -9
-33 -19 -51 -23 -33 -6 -65 -24 -145 -81 -22 -15 -51 -34 -65 -40 -14 -7 -32
-16 -40 -21 -36 -22 -121 -61 -133 -61 -8 0 -26 -9 -40 -20 -27 -21 -72 -27
-82 -10 -4 6 -43 28 -88 50 -45 22 -96 48 -112 58 -17 9 -49 24 -70 32 -22 8
-69 30 -105 47 -35 18 -68 33 -73 33 -8 0 -83 33 -172 76 -28 13 -58 24 -68
24 -10 0 -20 7 -23 15 -7 18 13 45 33 45 7 0 43 14 78 30 35 17 68 30 73 30 5
0 20 10 33 21 13 12 36 26 52 31 15 6 27 14 27 19 0 5 6 9 14 9 8 0 27 11 43
24 15 13 38 26 51 30 12 4 35 18 51 31 36 31 150 93 173 94 9 1 20 -4 23 -9z
m-645 -858 c25 -14 52 -31 60 -38 8 -6 26 -15 40 -19 14 -4 28 -12 31 -17 3
-5 28 -12 55 -17 43 -6 91 -29 189 -88 11 -7 27 -16 35 -20 8 -4 23 -17 33
-30 10 -13 25 -23 34 -23 8 0 26 -9 40 -20 14 -11 33 -20 43 -20 9 0 34 -13
55 -30 21 -16 41 -30 45 -30 4 0 19 -10 33 -23 15 -12 47 -29 72 -36 41 -12
47 -11 82 10 21 13 56 38 77 56 22 18 45 33 52 33 12 0 100 67 186 142 45 39
91 68 108 68 4 0 30 23 58 50 28 28 57 50 64 50 10 0 13 -33 14 -147 1 -82 4
-160 8 -174 7 -22 2 -29 -36 -54 -24 -16 -61 -44 -83 -61 -22 -17 -62 -43 -90
-59 -27 -15 -59 -35 -70 -45 -11 -10 -42 -26 -70 -36 -45 -16 -165 -75 -190
-94 -16 -11 -101 -30 -138 -30 -19 0 -46 9 -60 20 -14 11 -31 20 -39 20 -8 0
-29 11 -48 25 -19 14 -42 25 -53 25 -10 0 -31 6 -45 14 -15 8 -56 22 -92 30
-38 10 -71 24 -80 35 -8 11 -26 25 -40 30 -14 6 -32 15 -40 20 -23 14 -122 58
-148 66 -12 3 -43 22 -67 41 -25 19 -54 34 -65 34 -12 0 -39 17 -61 38 -36 33
-39 40 -30 64 5 14 13 77 17 140 4 62 11 119 17 126 12 15 36 9 97 -26z"/>
<path d="M4833 6920 c-3 -11 -16 -23 -29 -26 -23 -6 -54 -38 -54 -56 0 -15 41
-8 46 7 4 8 11 15 16 15 15 0 58 49 58 66 0 22 -31 17 -37 -6z"/>
<path d="M4990 6850 c0 -5 5 -10 10 -10 6 0 10 5 10 10 0 6 -4 10 -10 10 -5 0
-10 -4 -10 -10z"/>
<path d="M4672 6803 c-6 -2 -10 -9 -6 -14 8 -14 21 -11 28 6 6 15 1 17 -22 8z"/>
<path d="M5365 6791 c-9 -15 14 -24 43 -16 20 5 23 8 11 16 -18 11 -46 12 -54
0z"/>
<path d="M5442 6788 c7 -20 58 -23 58 -4 0 11 -10 16 -31 16 -20 0 -29 -4 -27
-12z"/>
<path d="M5656 6680 c-26 -17 -28 -20 -12 -26 11 -4 30 0 46 10 16 9 36 16 45
16 9 0 13 5 10 10 -10 16 -57 10 -89 -10z"/>
<path d="M4397 6653 c-16 -16 -4 -23 39 -23 40 0 45 2 34 15 -13 15 -61 21
-73 8z"/>
<path d="M5530 6622 c0 -13 38 -23 46 -11 3 5 1 9 -5 9 -5 0 -16 3 -25 6 -9 3
-16 2 -16 -4z"/>
<path d="M4517 5912 c3 -12 22 -23 54 -32 28 -8 55 -22 60 -32 11 -20 55 -24
61 -6 6 17 -35 48 -64 48 -12 0 -36 9 -53 20 -39 26 -65 26 -58 2z"/>
<path d="M4292 5818 c6 -18 28 -21 28 -4 0 9 -7 16 -16 16 -9 0 -14 -5 -12
-12z"/>
<path d="M4750 5801 c0 -6 5 -13 10 -16 6 -4 8 -11 5 -16 -4 -5 1 -9 9 -9 19
0 20 5 6 31 -11 20 -30 26 -30 10z"/>
<path d="M5554 5799 c-10 -17 17 -29 39 -17 16 8 17 12 6 19 -19 12 -36 11
-45 -2z"/>
<path d="M5302 5780 c-27 -25 -27 -30 -3 -30 23 0 54 28 46 41 -9 14 -19 11
-43 -11z"/>
<path d="M4800 5757 c0 -21 22 -37 52 -37 21 0 28 -5 28 -20 0 -23 40 -37 66
-22 15 8 12 12 -19 27 -20 9 -48 28 -62 41 -28 26 -65 32 -65 11z"/>
<path d="M5211 5720 c-13 -11 -18 -20 -11 -20 18 0 50 20 50 30 0 15 -12 11
-39 -10z"/>
<path d="M4507 5724 c-12 -12 4 -24 31 -24 26 1 26 1 8 15 -22 17 -30 18 -39
9z"/>
<path d="M4610 5656 c0 -24 26 -38 40 -22 6 9 9 20 5 26 -9 15 -45 12 -45 -4z"/>
<path d="M5063 5653 c-18 -7 -16 -20 3 -27 17 -6 44 9 44 25 0 10 -27 11 -47
2z"/>
<path d="M5025 5641 c-3 -5 -1 -12 5 -16 5 -3 10 1 10 9 0 18 -6 21 -15 7z"/>
<path d="M5250 5595 c-9 -11 -17 -12 -31 -5 -14 8 -27 4 -55 -15 -24 -17 -51
-25 -78 -25 -48 0 -61 -7 -70 -37 -6 -17 -3 -23 8 -23 9 0 16 4 16 9 0 5 9 7
19 4 11 -3 34 2 52 11 18 9 40 16 51 16 10 0 26 9 35 20 10 11 23 20 29 20 6
0 17 6 24 14 6 8 21 17 33 19 22 4 22 4 1 6 -12 0 -27 -6 -34 -14z"/>
<path d="M5280 7252 c0 -14 69 -42 102 -42 26 0 29 2 18 15 -7 8 -21 15 -31
15 -10 0 -21 5 -24 10 -7 12 -65 14 -65 2z"/>
<path d="M5120 7243 c1 -14 27 -43 39 -43 16 0 13 15 -7 33 -20 18 -32 22 -32
10z"/>
<path d="M4665 7203 c-26 -7 -76 -42 -93 -65 -7 -10 -24 -18 -37 -18 -13 0
-32 -11 -43 -25 -11 -14 -24 -25 -29 -25 -18 0 -73 -31 -85 -49 -7 -10 -24
-20 -38 -23 -14 -3 -41 -12 -60 -19 -19 -6 -41 -13 -47 -15 -24 -6 -14 -42 13
-48 27 -7 74 15 74 34 0 6 6 10 13 10 25 0 66 25 76 48 7 14 19 22 36 22 16 0
25 6 25 16 0 8 4 13 9 10 5 -3 20 3 34 14 14 11 30 20 36 20 6 0 11 5 11 10 0
6 7 10 16 10 9 0 32 14 51 30 18 17 40 30 47 30 8 0 16 9 19 20 3 11 2 19 -1
19 -4 -1 -16 -4 -27 -6z"/>
<path d="M5435 7191 c27 -26 75 -38 75 -19 0 24 -22 38 -59 38 -35 0 -35 0
-16 -19z"/>
<path d="M4928 7193 c6 -2 18 -2 25 0 6 3 1 5 -13 5 -14 0 -19 -2 -12 -5z"/>
<path d="M5230 7173 c0 -11 70 -26 79 -18 8 9 -6 16 -43 22 -21 3 -36 2 -36
-4z"/>
<path d="M5004 7144 c3 -9 6 -18 6 -20 0 -2 11 -4 25 -4 28 0 34 24 9 34 -29
11 -46 7 -40 -10z"/>
<path d="M5367 7125 c6 -18 34 -16 41 3 2 7 -6 12 -22 12 -19 0 -24 -4 -19
-15z"/>
<path d="M5561 7131 c-21 -14 -6 -27 58 -51 38 -14 61 -29 64 -41 4 -14 14
-19 40 -19 19 0 40 -7 48 -16 13 -15 49 -34 78 -40 7 -1 26 -14 40 -28 15 -14
35 -26 44 -26 25 0 60 -39 54 -61 -7 -24 4 -24 55 2 40 21 40 21 21 40 -10 11
-37 22 -59 26 -22 3 -54 19 -72 35 -18 15 -39 28 -46 28 -7 0 -23 11 -35 24
-12 13 -38 26 -57 29 -19 3 -48 17 -65 31 -17 14 -37 26 -46 26 -8 0 -28 11
-45 25 -31 26 -53 31 -77 16z"/>
<path d="M5130 7070 c0 -5 7 -10 15 -10 8 0 15 5 15 10 0 6 -7 10 -15 10 -8 0
-15 -4 -15 -10z"/>
<path d="M5182 7058 c7 -20 68 -23 68 -4 0 12 -10 16 -36 16 -24 0 -34 -4 -32
-12z"/>
<path d="M5298 7033 c7 -3 16 -2 19 1 4 3 -2 6 -13 5 -11 0 -14 -3 -6 -6z"/>
<path d="M5620 6985 c0 -19 27 -33 56 -27 27 5 32 27 8 36 -29 11 -64 7 -64
-9z"/>
<path d="M4476 6951 c-3 -5 1 -11 9 -15 9 -3 15 0 15 9 0 16 -16 20 -24 6z"/>
<path d="M4172 6918 c-15 -15 -16 -41 0 -36 6 2 18 14 26 26 12 19 12 22 0 22
-8 0 -19 -5 -26 -12z"/>
<path d="M4386 6901 c-39 -22 -45 -41 -13 -41 15 0 31 9 41 25 27 40 20 45
-28 16z"/>
<path d="M4091 6871 c-12 -8 -10 -12 12 -22 30 -14 43 -8 34 16 -7 17 -25 19
-46 6z"/>
<path d="M4250 6830 c-11 -7 -7 -10 18 -10 20 0 31 4 27 10 -8 13 -26 13 -45
0z"/>
<path d="M6150 6834 c0 -11 34 -33 50 -33 10 0 8 6 -9 19 -23 20 -41 26 -41
14z"/>
<path d="M3986 6807 c-20 -14 -15 -37 8 -37 7 0 23 9 36 20 13 11 18 20 12 20
-6 0 -16 2 -24 5 -7 3 -22 -1 -32 -8z"/>
<path d="M3885 6750 c-10 -11 -30 -20 -45 -20 -15 0 -33 -7 -40 -15 -7 -8 -18
-15 -25 -15 -22 0 -24 -36 -3 -49 16 -10 23 -9 38 4 20 18 47 12 70 -16 18
-22 69 -33 89 -20 19 12 3 33 -20 26 -13 -4 -21 -1 -26 12 -3 10 -15 27 -26
37 -18 18 -19 19 -1 29 13 7 19 7 22 -1 2 -7 15 -12 29 -12 25 0 25 1 10 18
-10 10 -17 24 -17 30 0 19 -35 14 -55 -8z"/>
<path d="M6114 6749 c-3 -6 -1 -16 5 -22 9 -9 14 -8 21 3 5 8 10 18 10 23 0
11 -28 8 -36 -4z"/>
<path d="M6025 6720 c-3 -5 -1 -10 4 -10 6 0 11 5 11 10 0 6 -2 10 -4 10 -3 0
-8 -4 -11 -10z"/>
<path d="M6186 6712 c-9 -15 1 -47 16 -50 24 -5 43 25 28 43 -14 16 -36 20
-44 7z"/>
<path d="M3995 6680 c3 -5 10 -10 16 -10 5 0 9 5 9 10 0 6 -7 10 -16 10 -8 0
-12 -4 -9 -10z"/>
<path d="M3672 6632 c-11 -8 -7 -42 5 -42 17 0 41 23 37 35 -7 17 -22 19 -42
7z"/>
<path d="M6045 6590 c4 -6 11 -8 16 -5 14 9 11 15 -7 15 -8 0 -12 -5 -9 -10z"/>
<path d="M4030 6575 c-7 -8 -11 -17 -8 -20 8 -8 49 8 45 18 -6 18 -23 19 -37
2z"/>
<path d="M4080 6535 c0 -11 41 -45 53 -45 7 0 18 -5 25 -12 9 -9 15 -9 23 -1
17 17 -36 63 -72 63 -16 0 -29 -2 -29 -5z"/>
<path d="M4216 6462 c-9 -15 33 -42 64 -42 51 0 32 32 -27 44 -17 4 -34 3 -37
-2z"/>
<path d="M4355 6390 c3 -5 17 -10 31 -10 14 0 22 4 19 10 -3 6 -17 10 -31 10
-14 0 -22 -4 -19 -10z"/>
<path d="M4580 6270 c0 -5 4 -10 9 -10 6 0 13 5 16 10 3 6 -1 10 -9 10 -9 0
-16 -4 -16 -10z"/>
<path d="M4710 6240 c-12 -7 -11 -10 5 -15 11 -4 30 -11 43 -16 17 -7 22 -5
22 6 0 9 -12 20 -26 25 -30 12 -26 12 -44 0z"/>
<path d="M5488 6219 c-16 -11 -28 -29 -28 -39 0 -18 1 -18 30 -2 16 9 30 23
30 30 0 6 6 12 14 12 8 0 18 5 21 10 11 18 -39 10 -67 -11z"/>
<path d="M5204 6209 c-7 -12 15 -31 31 -26 6 2 11 11 13 20 4 19 -32 24 -44 6z"/>
<path d="M4880 6176 c0 -9 7 -19 15 -23 25 -9 27 2 5 22 -18 17 -20 17 -20 1z"/>
<path d="M4630 6132 c0 -5 11 -15 25 -22 27 -15 54 -2 41 19 -8 13 -66 15 -66
3z"/>
<path d="M4956 6126 c6 -15 18 -17 106 -20 12 -1 23 4 25 11 3 8 -9 12 -39 11
-24 0 -55 3 -71 7 -23 6 -26 5 -21 -9z"/>
<path d="M4760 6083 c-25 -15 -25 -15 9 -9 18 3 38 6 43 6 5 0 6 5 3 10 -8 13
-25 11 -55 -7z"/>
<path d="M4845 6000 c3 -5 13 -10 21 -10 8 0 12 5 9 10 -3 6 -13 10 -21 10 -8
0 -12 -4 -9 -10z"/>
<path d="M5190 5989 c0 -5 5 -7 10 -4 6 3 10 8 10 11 0 2 -4 4 -10 4 -5 0 -10
-5 -10 -11z"/>
<path d="M5060 5930 c0 -5 9 -10 21 -10 11 0 17 5 14 10 -3 6 -13 10 -21 10
-8 0 -14 -4 -14 -10z"/>
<path d="M3587 4833 c-46 -4 -50 -7 -67 -44 -14 -33 -16 -49 -8 -82 10 -47 6
-256 -6 -275 -11 -19 -43 -14 -91 12 -92 52 -237 56 -319 10 -58 -32 -130
-109 -161 -172 -26 -51 -27 -60 -23 -170 4 -110 10 -134 42 -189 33 -58 137
-134 210 -154 64 -18 141 -19 171 -3 15 8 33 14 41 14 7 0 33 14 57 30 55 37
70 37 85 4 22 -47 97 -62 160 -32 l22 11 0 513 c0 497 -1 514 -19 524 -11 5
-26 9 -33 8 -7 -1 -35 -3 -61 -5z m-201 -519 c112 -47 153 -161 100 -278 -19
-41 -35 -59 -72 -81 -42 -25 -54 -27 -114 -23 -70 5 -106 22 -152 70 -37 39
-49 83 -40 144 9 54 61 134 87 134 7 0 18 7 25 15 28 34 109 43 166 19z"/>
<path d="M3275 4262 c-34 -12 -51 -26 -78 -67 -37 -55 -37 -112 1 -147 38 -34
82 -50 128 -45 55 7 66 13 92 53 39 61 10 149 -64 195 -33 20 -45 21 -79 11z"/>
<path d="M6420 4569 c-88 -9 -131 -29 -170 -78 -38 -47 -59 -51 -94 -16 -29
29 -105 35 -126 10 -15 -18 -16 -673 -1 -688 15 -15 119 -16 132 -1 7 9 10 46
8 96 -1 46 -2 124 -1 173 l2 90 54 59 c59 63 75 66 98 20 17 -36 84 -87 145
-110 26 -10 67 -31 90 -47 67 -45 69 -89 5 -129 -55 -34 -140 -32 -209 5 -64
33 -74 33 -101 4 -24 -26 -29 -73 -9 -97 24 -30 105 -69 163 -78 75 -12 189 0
235 24 70 38 139 141 139 209 0 53 -34 119 -82 157 -43 36 -122 79 -168 93
-14 4 -47 18 -75 30 -27 12 -58 25 -67 28 -29 10 -34 55 -9 80 29 30 171 38
219 13 49 -26 79 -21 102 17 31 49 23 68 -45 103 -67 35 -133 44 -235 33z"/>
<path d="M7143 4550 c-43 -4 -80 -13 -90 -22 -10 -9 -33 -23 -52 -33 -50 -25
-115 -107 -138 -175 -7 -19 -14 -86 -17 -149 -5 -109 -4 -115 22 -161 40 -70
91 -122 163 -166 l64 -39 102 2 c88 2 109 6 166 31 74 34 146 102 182 172 33
67 41 173 18 268 -15 65 -26 88 -72 145 -29 37 -59 67 -66 67 -7 0 -23 9 -37
19 -24 19 -132 52 -159 50 -8 -1 -46 -5 -86 -9z m170 -206 c92 -78 112 -173
58 -268 -47 -81 -91 -118 -149 -124 -53 -5 -87 8 -141 54 -44 37 -61 84 -61
169 0 67 2 75 36 118 20 26 41 47 46 47 6 0 22 9 36 21 40 31 129 22 175 -17z"/>
<path d="M5501 4491 c-90 -29 -173 -123 -206 -234 -24 -78 -16 -227 15 -289
39 -79 126 -156 198 -177 93 -26 288 13 357 72 42 37 43 61 2 76 -12 5 -29 16
-36 25 -17 20 -55 21 -71 2 -21 -27 -107 -49 -158 -41 -40 6 -55 16 -104 66
-57 58 -73 98 -47 115 6 3 109 8 228 10 253 5 265 8 258 69 -14 111 -53 216
-96 253 -14 13 -48 34 -76 47 -62 31 -180 33 -264 6z m196 -130 c34 -22 69
-82 59 -106 -4 -12 -29 -15 -134 -15 -131 0 -152 6 -152 41 0 23 80 86 116 92
60 9 80 6 111 -12z"/>
<path d="M4643 4474 c-31 -24 -43 -57 -24 -68 11 -7 71 -133 71 -151 0 -8 11
-35 25 -61 14 -26 25 -55 25 -65 0 -10 4 -20 9 -23 5 -3 14 -27 21 -53 6 -27
17 -55 24 -63 8 -8 24 -46 36 -84 26 -81 62 -123 109 -131 65 -11 119 50 152
175 7 25 19 54 26 65 7 11 13 36 13 56 0 20 6 42 14 48 8 7 18 27 21 44 4 18
13 39 20 47 19 22 49 105 76 213 16 61 8 69 -70 70 -67 0 -86 -10 -94 -51 -3
-15 -17 -58 -32 -97 -15 -38 -32 -91 -38 -116 -7 -25 -20 -57 -29 -72 -10 -14
-18 -37 -18 -50 0 -26 -26 -55 -38 -43 -9 10 -61 162 -72 213 -5 24 -16 53
-24 65 -8 13 -20 44 -27 71 -15 60 -47 87 -103 87 -29 0 -51 -8 -73 -26z"/>
<path d="M3862 4470 c-21 -20 -22 -29 -22 -188 0 -166 11 -295 32 -362 20 -66
96 -121 185 -136 49 -8 176 26 208 56 29 27 63 26 74 -3 13 -34 31 -45 86 -52
36 -5 55 -2 69 8 19 14 19 29 17 343 -2 210 -6 333 -13 341 -16 20 -132 17
-149 -4 -11 -12 -14 -64 -15 -227 l-1 -210 -49 -43 c-85 -74 -189 -69 -249 12
-19 25 -20 42 -20 243 0 119 -4 223 -8 230 -5 7 -31 12 -66 12 -44 0 -62 -5
-79 -20z"/>
<path d="M1125 925 c-83 -14 -123 -29 -235 -85 -108 -54 -149 -88 -200 -163
-82 -122 -145 -426 -120 -571 22 -120 -1 -106 175 -106 121 0 155 3 155 13 0
7 -4 17 -9 22 -5 6 -19 40 -31 77 -34 101 -26 195 26 313 34 78 47 95 98 137
71 57 175 95 287 104 63 6 88 3 149 -16 103 -32 157 -28 193 14 16 17 18 34
15 90 -4 64 -6 71 -38 98 -45 37 -110 56 -235 69 -151 16 -155 16 -230 4z"/>
<path d="M7435 599 c-17 -5 -49 -24 -71 -43 -22 -19 -71 -51 -109 -71 -164
-87 -170 -98 -163 -267 5 -111 17 -153 60 -205 15 -19 542 -19 536 0 -3 6 -13
36 -22 64 -26 77 -70 115 -154 130 -80 15 -122 51 -122 106 0 58 25 73 131 82
92 7 106 11 147 42 46 34 45 80 -3 126 -28 27 -46 36 -88 41 -66 8 -104 6
-142 -5z"/>
<path d="M2242 585 c-18 -6 -66 -38 -108 -71 -42 -32 -91 -67 -111 -77 -63
-33 -116 -96 -140 -167 -28 -82 -46 -191 -37 -236 l6 -34 113 0 112 0 7 40
c24 154 150 314 263 335 48 9 100 -15 133 -61 14 -19 30 -41 35 -47 6 -7 24
-39 39 -72 16 -33 37 -71 47 -85 9 -14 22 -44 28 -68 l12 -42 140 0 140 0 -6
47 c-20 154 -48 224 -117 301 -36 40 -185 155 -258 199 -77 47 -218 65 -298
38z"/>
<path d="M5584 576 c-37 -17 -64 -40 -94 -80 -34 -45 -51 -58 -84 -66 -148
-38 -170 -75 -182 -297 l-7 -133 400 0 400 0 61 39 c49 32 62 46 67 73 8 42 0
62 -64 168 -50 82 -171 213 -251 271 -73 53 -166 62 -246 25z m191 -189 c37
-58 23 -132 -35 -180 -47 -40 -93 -45 -134 -14 -73 56 -85 151 -23 183 47 25
76 32 129 33 39 1 50 -3 63 -22z"/>
<path d="M8440 583 c-48 -13 -171 -90 -205 -129 -5 -6 -17 -15 -26 -20 -60
-32 -184 -249 -212 -371 l-14 -63 143 0 c139 0 143 1 149 23 4 12 26 62 50
112 23 50 45 102 49 117 3 15 23 46 45 68 34 36 43 40 87 40 62 -1 121 -31
168 -88 35 -43 91 -151 100 -194 3 -13 7 -35 11 -50 l5 -28 136 0 135 0 -5 32
c-17 100 -26 152 -29 155 -2 2 -17 -3 -32 -11 -16 -8 -33 -12 -39 -9 -6 4 -4
8 4 11 22 6 40 33 40 58 0 29 -17 39 -37 22 -13 -10 -13 -7 2 15 16 24 16 30
4 38 -19 12 -46 11 -72 -2 -22 -12 -22 -12 -3 10 11 11 27 21 38 21 10 0 18 5
18 10 0 31 -192 179 -292 225 -62 29 -132 32 -218 8z"/>
<path d="M3535 554 c-87 -34 -115 -38 -179 -24 -135 29 -199 11 -237 -67 -21
-44 -23 -64 -27 -256 l-4 -207 120 0 120 0 7 55 c19 158 132 299 218 274 45
-13 95 -56 118 -101 25 -48 59 -166 59 -203 l0 -25 115 0 115 0 0 134 c0 258
-23 301 -217 401 -66 34 -152 42 -208 19z"/>
<path d="M4930 550 c-90 -24 -122 -71 -141 -206 -30 -220 -55 -279 -126 -304
-38 -12 -46 -12 -75 2 -18 8 -54 34 -79 56 -38 34 -48 50 -58 99 -15 66 -61
194 -90 250 -40 79 -101 111 -163 86 -54 -22 -61 -48 -39 -146 11 -45 22 -118
26 -162 4 -44 13 -109 21 -145 7 -36 14 -68 14 -72 0 -5 168 -8 374 -8 l373 0
22 65 c15 44 24 98 27 169 2 58 9 117 14 131 14 36 12 125 -3 155 -14 27 -57
40 -97 30z"/>
<path d="M6690 541 c-14 -5 -43 -18 -65 -30 -44 -23 -85 -26 -148 -10 -56 14
-94 -1 -111 -43 -19 -46 -39 -223 -40 -350 l-1 -108 147 0 147 0 12 42 c18 62
67 135 132 197 59 57 91 116 102 193 7 45 5 50 -28 83 -30 30 -42 35 -78 34
-24 0 -55 -4 -69 -8z"/>
</g>
</svg>
